/* XPM */
static char *da408ff1b05441969a0eff5401b8321etnUc1GRYrqxg0qdQ[] = {
/* columns rows colors chars-per-pixel */
"32 32 129 2 ",
"   c white",
".  c #FEFEFF",
"X  c #FEFEFE",
"o  c gray99",
"O  c #EEF0F2",
"+  c #DCE1E4",
"@  c #F9FAFB",
"#  c #F4F5F6",
"$  c #DBDFE3",
"%  c #F5F7F7",
"&  c #FDFEFF",
"*  c #F6F8FE",
"=  c #FCFDFF",
"-  c #F5F6F7",
";  c #E8EBED",
":  c #FCFCFD",
">  c #F7F9FE",
",  c #FAFBFE",
"<  c #F8F9FA",
"1  c #E7EAEC",
"2  c #FAFAFB",
"3  c #EEF2FD",
"4  c #E8EEFC",
"5  c #F9FBFE",
"6  c #F1F5FD",
"7  c #EDF2FD",
"8  c #F4F6FD",
"9  c #F9FAFE",
"0  c #F5F8FE",
"q  c #F3F6FD",
"w  c #F0F3FD",
"e  c #FDFEFE",
"r  c #FBFCFC",
"t  c #F4F7FD",
"y  c #F8FAFE",
"u  c #FBFBFC",
"i  c #F5F7FE",
"p  c #EAEDEE",
"a  c #DEE2E5",
"s  c #F0F2F3",
"d  c #F8F9F9",
"f  c #F3F5F6",
"g  c #EBEDEF",
"h  c #F7F8F9",
"j  c #E9EBED",
"k  c #FBFCFF",
"l  c #E2E9FC",
"z  c #E6ECF9",
"x  c #EBF0FD",
"c  c #E1E8F9",
"v  c #F3F6FC",
"b  c #FAFBFF",
"n  c #F0F3F9",
"m  c #C5D0E3",
"M  c #CED8EB",
"N  c #F9FAFC",
"B  c #F8F9FC",
"V  c #CAD4E5",
"C  c #C9D4E8",
"Z  c #F3F5F9",
"A  c #FCFCFE",
"S  c #E8EDFC",
"D  c #FDFDFD",
"F  c #E2E6EB",
"G  c #E5E9ED",
"H  c #F0F4FD",
"J  c #EDF1FD",
"K  c #FEFFFE",
"L  c #E7EBEE",
"P  c #E0E5EA",
"I  c #F2F5FD",
"U  c #EBF0FC",
"Y  c #FDFDFF",
"T  c #FEFFFF",
"R  c #FBFCFE",
"E  c #F4F7FE",
"W  c #ECF0FC",
"Q  c #F8F9FE",
"!  c #FAFBFB",
"~  c #EDF0F1",
"^  c #DADFE2",
"/  c #F9FAFA",
"(  c #F3F4F5",
")  c #D9DEE1",
"_  c #F7F8F8",
"`  c #EBEEEF",
"'  c #EAEDEF",
"]  c #FBFBFB",
"[  c #E9EEFC",
"{  c #F1F4FD",
"}  c #ECF1FD",
"|  c #EFF3FD",
" . c #E9ECEE",
".. c #EFF1F3",
"X. c #FCFDFE",
"o. c #EEF0F1",
"O. c #ECEEF0",
"+. c #FCFDFD",
"@. c #E3EAFC",
"#. c #E3EAF8",
"$. c #DFE7F8",
"%. c #F0F4FC",
"&. c #F1F4F8",
"*. c #C4CFE2",
"=. c #CDD7E9",
"-. c #C9D3E4",
";. c #C7D2E6",
":. c #F3F6F9",
">. c #FAFBFD",
",. c #E6EAEE",
"<. c #E9EDF0",
"1. c #FFFFFE",
"2. c #EBEEF1",
"3. c #E4E8EC",
"4. c #F3F6FE",
"5. c #ECF1FC",
"6. c #FCFCFF",
"7. c #E6ECFC",
"8. c #E0E8FB",
"9. c #F2F8FC",
"0. c #E6F4F8",
"q. c #F0F5FC",
"w. c #E1F1F8",
"e. c #F2F6FD",
"r. c #DFE7FB",
"t. c #EDF3FD",
"y. c #DFEFF8",
"u. c #F3F8FD",
"i. c #F6FAFD",
/* pixels */
"          . . .                       . .     . .               ",
".                       X o                               o     ",
"                        O + @                           # $ %   ",
"      & * =             - ; :         . > ,             < 1 2   ",
">     3 4 5                           6 4 *                   . ",
"7     8 9 .                 & .       * > .                 . , ",
"0                         & 7 q                           . w 3 ",
"    e r                   . t y     X u                     * i ",
"    p a r                           s $ d                       ",
"    f g e                           h j o                       ",
"q k                             * y                             ",
"l z q =             = 0         x c v b             & i .       ",
"n m M N             y 4 0       B V C Z             A S q .     ",
"D F G X             = H J       K L P D             & I U &     ",
"              . Y     . =                     T =       =     R ",
"              E W =                           Q U ,           & ",
"              , E .                           R q Y             ",
".                       X !                             X 2 .   ",
"                        ~ ^ /                           ( ) -   ",
"=     = E R             _ ` D         & 0 5             2 ' ]   ",
"6     J [ 5                           { 4 *                     ",
"Y     0 , .                 = .       > y .                 Y Y ",
"                          & } q                           . | 7 ",
"T   D !                   . 0 5     X /                     > i ",
"T    .+ r                           ..) h                     X.",
"    - o.X                           < O.+.                      ",
"{ ,                             E >                             ",
"@.#.H =             R E         } $.%.,             & q .       ",
"&.*.=.N             y S t       N -.;.:.            X.S I .     ",
">.,.<.1.            = I 3         2.3.D             . 4.5.&     ",
"9     6..     . 6.. 6.  &             . k     . R . k   Y       ",
"i y x 7.| 9 E 3 [ | 8.9.0.q.w.e.| = q } l 3 = I 7.e.r.t.y.u.y.i."
};
