/* XPM */
static char *_528f05d4bb24824e27e45d457971e16mmaUWmS0pmEcQUXa[] = {
/* columns rows colors chars-per-pixel */
"32 32 189 2 ",
"   c #442D3B",
".  c #4A2E38",
"X  c #4B333B",
"o  c #553436",
"O  c #583635",
"+  c #5D3934",
"@  c #51363E",
"#  c #613C33",
"$  c #5F403D",
"%  c #4B3744",
"&  c #4D3A46",
"*  c #553E44",
"=  c #4D4445",
"-  c #4C5445",
";  c #5C4D54",
":  c #5D545B",
">  c #69524D",
",  c #624F50",
"<  c #685959",
"1  c #49664D",
"2  c #456E4A",
"3  c #4A694E",
"4  c #45734C",
"5  c #49724E",
"6  c #49784F",
"7  c #536E53",
"8  c #4B7452",
"9  c #4D7B53",
"0  c #527655",
"q  c #517957",
"w  c #527558",
"e  c #537D5A",
"r  c #5A795F",
"t  c #5E7C62",
"y  c #676466",
"u  c #6C6362",
"i  c #6E6967",
"p  c #696768",
"a  c #6A6A6A",
"s  c #657E69",
"d  c #726C72",
"f  c #717171",
"g  c #7C7C7C",
"h  c #4C8053",
"j  c #54835C",
"k  c #59875F",
"l  c #558A5C",
"z  c #65975E",
"x  c #719F59",
"c  c #558060",
"v  c #5B8463",
"b  c #5B8B63",
"n  c #5D8C69",
"m  c #5D9064",
"M  c #618D67",
"N  c #69816D",
"B  c #66886A",
"V  c #628E6B",
"C  c #64936C",
"Z  c #699568",
"A  c #628670",
"S  c #6F8371",
"D  c #6B8C74",
"F  c #738575",
"G  c #748B79",
"H  c #7C897D",
"J  c #669571",
"K  c #6B9B72",
"L  c #6D937C",
"P  c #6E9B7B",
"I  c #719D77",
"U  c #73937C",
"Y  c #749D7C",
"T  c #77A368",
"R  c #79A575",
"E  c #77A37D",
"W  c #83AD5D",
"Q  c #818C7F",
"!  c #87AC7D",
"~  c #8CB27B",
"^  c #96B979",
"/  c #739383",
"(  c #7E9D85",
")  c #7B978C",
"_  c #7F9C92",
"`  c #79A481",
"'  c #7FA886",
"]  c #75A189",
"[  c #848484",
"{  c #858D85",
"}  c #888F87",
"|  c #878F88",
" . c #8B8C8C",
".. c #819586",
"X. c #8B928D",
"o. c #8A9A8D",
"O. c #8E9290",
"+. c #969696",
"@. c #979798",
"#. c #989798",
"$. c #999999",
"%. c #88AA8C",
"&. c #95B98B",
"*. c #84A296",
"=. c #86AA91",
"-. c #8CAE95",
";. c #84A49B",
":. c #89A698",
">. c #8BAA9D",
",. c #91AD96",
"<. c #8CB391",
"1. c #8CB19F",
"2. c #97B894",
"3. c #94B39C",
"4. c #9BB79D",
"5. c #9AB99C",
"6. c #8EA9A1",
"7. c #92ADA4",
"8. c #93AEA9",
"9. c #8FB1A3",
"0. c #93B3A4",
"q. c #9CB3A4",
"w. c #9DBAA0",
"e. c #96B6A9",
"r. c #99B5AD",
"t. c #9DBBB3",
"y. c #A3A3A3",
"u. c #A5ABA5",
"i. c #A1BEA6",
"p. c #A9BFAD",
"a. c #A9AFB1",
"s. c #AABEB4",
"d. c #ACB5BA",
"f. c #B9BABA",
"g. c #A7C29B",
"h. c #A5C1AA",
"j. c #A8C2A9",
"k. c #B2C8AA",
"l. c #AAC5B4",
"z. c #AAC1BC",
"x. c #B1C7B5",
"c. c #B2CBB7",
"v. c #B2C6BB",
"b. c #B9CDBC",
"n. c #BCD1B5",
"m. c #C1D5B4",
"M. c #B8BDC9",
"N. c #B3C8C3",
"B. c #BACDC4",
"V. c #B4C5C8",
"C. c #BCCDCB",
"Z. c #B6C7D4",
"A. c #BDCED0",
"S. c #C2C4C4",
"D. c #C5CFCD",
"F. c gray81",
"G. c #C4D5CC",
"H. c #D1DECD",
"J. c #C2CED3",
"K. c #C4D2D5",
"L. c #CAD6D2",
"P. c #CCD9D3",
"I. c #C7D5D8",
"U. c #CAD6DC",
"Y. c #CBDADC",
"T. c #D1DED5",
"R. c #D3DDDD",
"E. c #D5E1D3",
"W. c #DEE7DD",
"Q. c #C0CEE2",
"!. c #CFDBE2",
"~. c #D1DEE3",
"^. c #DBDEE0",
"/. c #D7E2E6",
"(. c #DCE4E1",
"). c #DAE3EA",
"_. c #E5E7ED",
"`. c #E5EBEC",
"'. c #EBEBEC",
"]. c #EFF4EE",
"[. c #E5EBF3",
"{. c #EAEEF3",
"}. c #E7EDFB",
"|. c #EAEFFC",
" X c #ECF1F3",
".X c #EBF0F8",
"XX c #F1F4F1",
"oX c #F3F6FC",
"OX c #FDFEFE",
/* pixels */
"f f f f f f f f f f f f f f d d g [ g d d f f f f f f f f f f f ",
"@.@.@.@.+.@.+.+.@.@.+.#.@.y.m.F._.XX_.M.y.$.+.$.@.@.+.@.@.+.+.+.",
"@.+.+.+.+.+.+.+.+.+.@.+.u.W.oXOXoX|.}.}.'.S.y.+.@.+.+.+.+.+.+.+.",
"@.+.+.+.+.+.@.+.@.@.H D ! U.oXXX'.oXoXOXOXOX'.S.@.+.@.+.+.+.+.+.",
"@.+.+.+.+.+.+.+.X.F o.P./.R.b.&.&.`.[.oXOXOXOX{.d.X.+.+.#.+.+.#.",
"+.+.+.+.+.+.+.+.u.,.K <.5.~ ^ k.h.0.-.C.oXoX~.K.) N +.+.+.+.+.+.",
"+.+.@.+.+.@.+.X.S..Xb.! ~ C.I.K.j.5.C.I.U.:.j 8 2 0 Q +.+.+.+.+.",
"+.+.+.+.+.@.@...e.B.5.W x V n n E E P I ` E I M ..*.s X.+.+.#.+.",
"+.+.+.+.$.} s ( P. XE.m.<.R 5.h.H.`.]. X`.C.s.I.C.%.5 s { +.+.+.",
"@.+.+.+.$.X.V -.e.0.C./.N.3.' K I e./.!.7.n j V b 8 5 N +.+.+.@.",
"+.+.+.+.f.'.XXb.l l b n j j j b m b J J b b b k e 9 q N F +.+.+.",
"@.+.+.+.d.{.OXH.T Z b v j 9 8 8 9 h j l m %.b.j.-.p.L.R.( N +.+.",
"+.+.+.+.X.r._.OXW.g.T z K I q.l.s.l.x.` <.XXOXoX[.K.0.7.G w { @.",
"+.+.O.o.G / Z.Y.[.XXT.n.W.B.0.8.6.8.U.I.I.~.J.>.] c 9 6 5 8 t { ",
"+.+.F ..'.oXK.v P >.6.7.7.P l l l j b t j v b 9 b J ,.q.e 5 8 F ",
"+.+.Q t r.`.oXW.g.R C l K E E E E ` n b b b =.v.P.{.[.V.A 4 t ..",
"+.+.H 5 6 L 9.N.~.b.I ] Y. X X XY.9.n m m J >.6.>.:.L 2 9 3.C.a.",
"@. .t B 4 4 9 j b j C %.9.1.9.1.P m m m b b j h l %.p.3.N.z.D t ",
"+.Q ( ^.b.p.n Y 0.;.K. XP.c.j.5.n 9 j b ` ~ 2.v.G.(.z.M b w 2 5 ",
"+.Q U [.OXOXG.b 9 8 / *.*.,.D c _ ;._ 8.A.G.K.Q.Z.;.9 9 c q 8 5 ",
"+.} v r.).oX|./.w.V e 6 4 4 b D v e v b V P -.G.D.C.c.i.] b e 8 ",
"+.@.F B P -.v.~.I.N.=.k <.e.C.K.l.5.Y 4.t.K.Y./.K.0.=.Z b e 0 w ",
"+.+.@.X.S 0 q j L _ Y b J J C b b V n C C n C n v 9 8 8 8 w S | ",
"+.+.+.@.@. .G N r 0 9 e j e 8 2 1 1 3 1 3 8 8 t t r r t s { +.@.",
"+.+.+.+.+.@.+.+.O.{ N r 7 $ = X       . = f { O.O.+.+.X.+.@.+.+.",
"+.@.+.+.@.+.+.+.+.X. . .< $ + + . o . o & d Q  . . .X.+.@.+.@.+.",
"+.+.+.+.+.+.[ g f a i < $ O # + # + . o . & u a a a f g [ O.+.+.",
"+.+.+.@. .f p y p i u < - $ + o + O   .   % ; < a a p p y f  .+.",
"+.+.+.+.O.Q i p u p p f > * * & * & & & % @ , i a y p y a g O.+.",
"+.+.+.+.+.+.O.[ g d f f u y a p y p p p y : < f f d g [  .+.+.+.",
"+.+.+.+.+.+.#.+.+.+.+.+. .[  .[ [ [ [ [ [ [  .O.+.+.+.+.+.+.+.+.",
"+.#.y.y.y.y.y.y.y.y.y.y.y.y.y.y.y.y.y.y.y.y.y.y.y.y.y.y.y.y.y.y."
};
