/* XPM */
static char *ad64e6cd9d9c415ccb10ffb6224fd7363fuvvXdHawbQy9PO[] = {
/* columns rows colors chars-per-pixel */
"32 32 56 1 ",
"  c #6D6D6E",
". c #6F6F70",
"X c #737275",
"o c #767579",
"O c #78777B",
"+ c #77797C",
"@ c #7A797E",
"# c #7D7D82",
"$ c #807F85",
"% c #7F8086",
"& c #7F8288",
"* c #808187",
"= c #82848A",
"- c #85888F",
"; c #878B91",
": c #888B92",
"> c #888C93",
", c #8D8D93",
"< c #888D94",
"1 c #888E95",
"2 c #8C8D96",
"3 c #8C8F98",
"4 c #8B9299",
"5 c #8C9098",
"6 c #8C9199",
"7 c #8C949B",
"8 c #8D949C",
"9 c #8C959C",
"0 c #8E969D",
"q c #90959E",
"w c #8F98A0",
"e c #9197A0",
"r c #9298A1",
"t c #9399A2",
"y c #939AA3",
"u c #979AA2",
"i c #979BA3",
"p c #949AA4",
"a c #949CA6",
"s c #969EA7",
"d c #969EA8",
"f c #979FA9",
"g c #95A0A8",
"h c #98A2AB",
"j c #98A2AC",
"k c #99A3AD",
"l c #9BA4AD",
"z c #9AA4AE",
"x c #9BA6B0",
"c c #9CA8B2",
"v c #9CA9B3",
"b c #9DA9B3",
"n c #9EAAB5",
"m c #9FACB6",
"M c #9FACB7",
"N c #9FADB8",
/* pixels */
"6oXX::XoX=#e0#@$:XXX::Xoo=Oe0$-#",
"i+.oOX#-oO$bd##kx+.OoX#-oo$Mk##d",
"l6#ss#6r#>%;#O#cN3#dd#6r$:*:$X$k",
"d6o=6$$+<Ms+:k:*r3o-6=#+:Ni+:k;=",
"6o0-+sr.o3%#lN4Xoo0;+sr.o<%#kN0X",
"6+g46MdXo#*#%=X#;#g4<NdXo#=##-X#",
"q==o+-=-01N3oO##+**o+;=-01M2o@##",
"kMd+;O+l0#0%w77<eMd+-O+lw#0%r66<",
"s0-oe=.;##o<M-%%i0-Xw=.;#+o<N;*#",
",XO#O#O..e%O;X.##X##O#O Xw=+:XX+",
"i#rk#*;XXo#oX-Ow0#ek+-=oXo+oX-+,",
"k--3X.O+##kd=r##k=-3X.O###kd=r##",
"2#*X=Xp<+;MM*Oo O#=X$oi<+-bM=Oo.",
"=o##i#<=*##*+:d= o##r#<%=##$+;i-",
"6--#OXX*#.@+$ddpO*-##XX=# @@#ddd",
"lNN-#$$Mk#**$xi#<MN-##%bl#***xr*",
"erd=##=ge#XO#:,.#rd=#+=dy#X##:2o",
"4oXX#=XoX$#re#@-3XXX=*XXX=+re@@=",
"d#.##X*4XX=Mi##Mx#.##X=4XX*cdO#l",
"k0#dl#17=y*$O##kN0#dk#10;q==##$d",
"p;O=;%=o<Ms#0c4#3;@*>=%o;by#6M<#",
"6Or>#ks.X-#+dN<X#Xa<#jy.X-##dN<O",
"6+p6<bpo#$<#+#.#-oe7;Myo+%<*+#XO",
"r<&XO##<w<N3+#*%#;*Xo##4w1N<##==",
"lNg#6@+b0O;=dw41sMg#6+@l0o;%d04;",
"s>#X6*X#+#O<b%##6:*X6=.#@*O<N%##",
",.==o## .0#o*X.*+X=*o$# .0#o*X %",
"s=rl@*%oOo%#o<#rh=rl+=*oOX$$o<#0",
"h=*-X.$@+*xx=4+Oi=#-..$#O%lM=6+o",
"<#=O;od<#-ll=o# X#=o<+p<#-kl=o+X",
"#XO*6#=#=oOoO6l1.X+=6#*#=+oOO6k6",
"30<*oXX-# ##=xyrO:3#oXX;# ##=xrd"
};
